#!OML:ASF F:\VICON\USERDATA\INSTALL\rory3\rory3.ASF
:FULLY-SPECIFIED
:DEGREES
940
root 1.58471 26.9416 0.051314 -165.376 -15.1605 182.59
lowerback 14.4552 1.68524 -9.95709
upperback 2.75929 0.557722 2.12915
thorax -5.29271 0.328129 7.86398
lowerneck -13.5394 -0.496846 -8.56891
upperneck 38.4862 -2.99925 1.37418
head 16.132 -3.49366 1.26745
rclavicle 3.45885e-014 -7.95139e-016
rhumerus 16.6288 -3.40876 -60.2029
rradius 125.201
rwrist 34.395
rhand -9.70741 -1.55658
rfingers 7.12502
rthumb 16.2654 -30.8943
lclavicle 3.45885e-014 -7.95139e-016
lhumerus 46.2248 -37.93 71.2756
lradius 69.8794
lwrist -33.903
lhand -7.56411 39.6244
lfingers 7.12502
lthumb 18.3282 68.7809
rfemur -27.9556 -3.41397 25.0641
rtibia 27.3252
rfoot 6.62316 -16.7399
rtoes 12.0149
lfemur -55.5532 10.6287 -27.7987
ltibia 58.6477
lfoot -3.62912 -25.5407
ltoes 14.5312
941
root 1.61616 26.8759 0.0502022 -165.242 -15.6616 182.406
lowerback 14.7351 1.58029 -10.0878
upperback 2.64868 0.368749 2.09501
thorax -5.5264 0.257693 7.94298
lowerneck -13.4801 -0.452575 -8.78366
upperneck 38.5975 -2.93071 1.42819
head 16.1764 -3.50167 1.33864
rclavicle -5.18828e-014 5.96354e-015
rhumerus 13.8854 -1.77224 -60.2877
rradius 127.264
rwrist 35.3461
rhand -13.5723 -2.6136
rfingers 7.12502
rthumb 12.5415 -32.2172
lclavicle -5.18828e-014 5.96354e-015
lhumerus 46.7595 -37.9048 70.7322
lradius 70.0982
lwrist -33.6816
lhand -7.14898 40.1749
lfingers 7.12502
lthumb 18.7275 69.2934
rfemur -27.8484 -3.11921 24.9066
rtibia 26.5845
rfoot 6.5587 -16.7602
rtoes 12.8309
lfemur -56.1591 10.4544 -27.9943
ltibia 59.4246
lfoot -3.46632 -25.7667
ltoes 15.7703
942
root 1.64298 26.8213 0.0451978 -165.095 -16.1722 182.289
lowerback 15.0545 1.46139 -10.083
upperback 2.45018 0.181559 2.05769
thorax -5.8767 0.199656 7.94251
lowerneck -13.3559 -0.393796 -8.80299
upperneck 38.6388 -2.80219 1.25007
head 16.1569 -3.48473 1.28605
rclavicle 5.1684e-015 -4.13472e-014
rhumerus 10.8019 0.314797 -60.628
rradius 129.041
rwrist 36.7005
rhand -17.708 -4.02111
rfingers 7.12502
rthumb 8.55212 -33.8279
lclavicle 5.1684e-015 -4.13472e-014
lhumerus 47.1465 -37.9285 70.3184
lradius 70.2763
lwrist -33.414
lhand -6.87869 40.6758
lfingers 7.12502
lthumb 18.9875 69.769
rfemur -27.6954 -2.95701 24.8467
rtibia 25.7986
rfoot 6.5122 -16.5992
rtoes 13.1463
lfemur -56.7217 10.2291 -28.0939
ltibia 60.1644
lfoot -3.36404 -25.9724
ltoes 17.1734
943
root 1.66734 26.7687 0.0409973 -164.959 -16.6671 182.227
lowerback 14.8167 1.29758 -10.0543
upperback 2.68144 -0.0109884 2.07564
thorax -5.45544 0.0643376 7.97708
lowerneck -13.6223 -0.454457 -8.86074
upperneck 38.4005 -2.6447 1.03779
head 16.0896 -3.4185 1.23665
rclavicle -5.36719e-014 -3.02153e-014
rhumerus 8.64861 2.28194 -61.0379
rradius 130.475
rwrist 38.1188
rhand -21.9397 -5.33825
rfingers 7.12502
rthumb 4.46697 -35.2711
lclavicle -5.36719e-014 -3.02153e-014
lhumerus 48.3159 -37.5851 69.4339
lradius 70.4766
lwrist -32.9939
lhand -6.0334 40.8041
lfingers 7.12502
lthumb 19.8002 69.8155
rfemur -27.5169 -2.92753 24.8741
rtibia 24.9301
rfoot 6.69001 -16.346
rtoes 12.513
lfemur -57.3087 10.0195 -28.1616
ltibia 60.8959
lfoot -3.58465 -26.2375
ltoes 17.2845
944
root 1.69542 26.7109 0.0398935 -164.867 -17.1363 182.119
lowerback 14.8576 1.16711 -10.0577
upperback 2.73566 -0.192093 2.0626
thorax -5.38122 -0.0331895 7.99976
lowerneck -13.5702 -0.464082 -9.05468
upperneck 38.2785 -2.56449 1.02099
head 16.014 -3.40377 1.28142
rclavicle 2.20651e-014 1.66979e-014
rhumerus 6.27749 4.19468 -61.3322
rradius 131.575
rwrist 39.2875
rhand -26.3097 -5.97351
rfingers 7.12502
rthumb 0.2466 -35.9531
lclavicle 2.20651e-014 1.66979e-014
lhumerus 49.1246 -37.4367 68.7582
lradius 70.6716
lwrist -32.5459
lhand -5.13027 40.773
lfingers 7.12502
lthumb 20.6682 69.6925
rfemur -27.2812 -2.78625 24.8105
rtibia 24.0094
rfoot 6.8143 -16.3533
rtoes 12.2543
lfemur -57.8547 9.80443 -28.2361
ltibia 61.6151
lfoot -3.708 -26.4836
ltoes 17.2772
945
root 1.72272 26.6544 0.0359161 -164.695 -17.5882 181.938
lowerback 14.868 1.03097 -10.0867
upperback 2.69424 -0.377927 2.01075
thorax -5.39227 -0.119856 7.99563
lowerneck -13.4333 -0.397784 -9.37582
upperneck 38.3205 -2.47793 1.20849
head 16.0046 -3.3974 1.43458
rclavicle 2.82274e-014 -3.10104e-014
rhumerus 3.58998 6.05034 -61.668
rradius 132.318
rwrist 40.3089
rhand -30.8826 -5.94388
rfingers 7.12502
rthumb -4.16976 -35.8828
lclavicle 2.82274e-014 -3.10104e-014
lhumerus 49.642 -37.2936 68.3315
lradius 70.7336
lwrist -32.371
lhand -5.05419 40.9448
lfingers 7.12502
lthumb 20.7413 69.8563
rfemur -27.0661 -2.65236 24.6587
rtibia 23.0798
rfoot 6.90271 -16.3744
rtoes 12.4259
lfemur -58.4451 9.52703 -28.3673
ltibia 62.3166
lfoot -3.72641 -26.7091
ltoes 17.4653
946
root 1.75058 26.6022 0.0323233 -164.515 -18.0876 181.616
lowerback 14.9303 0.874063 -10.2168
upperback 2.71151 -0.618255 1.94442
thorax -5.35614 -0.239809 8.04481
lowerneck -13.5676 -0.339101 -9.66157
upperneck 38.4337 -2.32161 1.2825
head 16.0915 -3.36933 1.54117
rclavicle -3.16068e-014 -2.0276e-014
rhumerus 1.12473 7.87529 -62.1146
rradius 132.698
rwrist 41.3281
rhand -35.2463 -5.19603
rfingers 7.12502
rthumb -8.38247 -35.0097
lclavicle -3.16068e-014 -2.0276e-014
lhumerus 50.3131 -37.0229 67.8173
lradius 70.7743
lwrist -32.1197
lhand -4.85876 41.122
lfingers 7.12502
lthumb 20.9291 70.0129
rfemur -26.7799 -2.66829 24.3924
rtibia 22.167
rfoot 6.89141 -16.3904
rtoes 11.2419
lfemur -58.9745 9.18266 -28.6209
ltibia 63.0029
lfoot -3.6871 -26.9817
ltoes 17.7517
947
root 1.78145 26.5511 0.0311433 -164.361 -18.6898 181.284
lowerback 15.1062 0.689843 -10.3312
upperback 2.73078 -0.905777 1.89735
thorax -5.36945 -0.381123 8.1183
lowerneck -13.7416 -0.290012 -9.8632
upperneck 38.4921 -2.13195 1.23697
head 16.1552 -3.32511 1.58782
rclavicle -1.45113e-014 1.03368e-014
rhumerus -1.16197 9.90323 -62.8582
rradius 132.675
rwrist 42.6291
rhand -39.3535 -4.5116
rfingers 7.12502
rthumb -12.3446 -34.1272
lclavicle -1.45113e-014 1.03368e-014
lhumerus 51.0765 -36.7324 67.2553
lradius 70.8144
lwrist -31.698
lhand -4.4275 41.0581
lfingers 7.12502
lthumb 21.3434 69.9027
rfemur -26.4877 -2.71714 24.13
rtibia 21.2983
rfoot 6.90862 -16.4854
rtoes 10.9383
lfemur -59.4579 8.70075 -28.8084
ltibia 63.6748
lfoot -3.60435 -27.3
ltoes 17.895
948
root 1.8125 26.493 0.0286439 -164.237 -19.3383 181.196
lowerback 15.2598 0.490887 -10.1745
upperback 2.72961 -1.1616 1.89312
thorax -5.4036 -0.507562 8.07611
lowerneck -13.8372 -0.278636 -10.0629
upperneck 38.4435 -2.03413 1.31746
head 16.1512 -3.29209 1.6767
rclavicle 6.02318e-014 1.07344e-014
rhumerus -3.57216 11.941 -63.9381
rradius 132.406
rwrist 44.1242
rhand -42.8763 -4.73806
rfingers 7.12502
rthumb -15.7392 -34.1181
lclavicle 6.02318e-014 1.07344e-014
lhumerus 51.8767 -36.5046 66.5753
lradius 70.9803
lwrist -30.8624
lhand -3.50272 40.4375
lfingers 7.12502
lthumb 22.2314 69.1789
rfemur -26.2934 -2.64113 24.0895
rtibia 20.5205
rfoot 6.77076 -16.7075
rtoes 10.288
lfemur -60.0608 8.17701 -28.7001
ltibia 64.3703
lfoot -3.30163 -27.5787
ltoes 18.6272
949
root 1.84099 26.431 0.0293947 -164.036 -19.928 181.001
lowerback 15.3639 0.28953 -10.0588
upperback 2.73458 -1.42364 1.84993
thorax -5.40395 -0.638925 8.01443
lowerneck -14.0226 -0.298702 -10.29
upperneck 38.4415 -1.98652 1.44906
head 16.198 -3.27808 1.78304
rclavicle -1.90833e-014 3.18055e-015
rhumerus -6.04611 13.7193 -65.1765
rradius 132.029
rwrist 45.5337
rhand -45.4615 -4.41166
rfingers 7.12502
rthumb -18.2277 -33.5776
lclavicle -1.90833e-014 3.18055e-015
lhumerus 52.806 -36.2427 65.7525
lradius 71.3522
lwrist -29.3448
lhand -2.24116 39.9299
lfingers 7.12502
lthumb 23.4421 68.5219
rfemur -26.2108 -2.63491 23.9262
rtibia 19.8419
rfoot 6.55478 -17.0259
rtoes 10.4564
lfemur -60.6684 7.60593 -28.701
ltibia 65.0434
lfoot -3.11909 -27.7944
ltoes 19.2609
950
root 1.87231 26.3713 0.0320046 -163.785 -20.5222 180.539
lowerback 15.5384 0.086445 -10.1424
upperback 2.73033 -1.73416 1.739
thorax -5.44003 -0.789091 8.00593
lowerneck -14.1074 -0.354328 -10.4839
upperneck 38.3492 -1.93844 1.39787
head 16.1731 -3.27916 1.80479
rclavicle 1.19271e-014 -3.02153e-014
rhumerus -8.27848 15.1468 -66.423
rradius 131.47
rwrist 46.7296
rhand -47.4591 -2.44021
rfingers 7.12502
rthumb -20.1486 -31.4153
lclavicle 1.19271e-014 -3.02153e-014
lhumerus 53.4049 -35.897 65.3747
lradius 71.0112
lwrist -30.3962
lhand -3.43693 40.7368
lfingers 7.12502
lthumb 22.2946 69.4706
rfemur -26.1189 -2.68718 23.4998
rtibia 19.2492
rfoot 6.37415 -17.4128
rtoes 11.1295
lfemur -61.1661 7.00269 -28.9893
ltibia 65.6792
lfoot -3.25442 -27.9243
ltoes 19.1276
951
root 1.90675 26.3133 0.0353598 -163.575 -21.1583 180.162
lowerback 15.768 -0.122342 -10.1401
upperback 2.68925 -2.0417 1.64935
thorax -5.54924 -0.931778 7.97491
lowerneck -14.0815 -0.4102 -10.6774
upperneck 38.1851 -1.88655 1.30898
head 16.0841 -3.28064 1.81196
rclavicle 4.31363e-014 1.19271e-015
rhumerus -10.2146 16.2631 -67.6223
rradius 130.702
rwrist 47.7088
rhand -48.5997 -1.11193
rfingers 7.12502
rthumb -21.2445 -29.9677
lclavicle 4.31363e-014 1.19271e-015
lhumerus 53.9331 -35.7584 64.9443
lradius 71.7021
lwrist -28.726
lhand -2.22565 40.9373
lfingers 7.12502
lthumb 23.457 69.5274
rfemur -26.0335 -2.56084 23.138
rtibia 18.749
rfoot 6.10974 -17.8626
rtoes 11.4316
lfemur -61.6631 6.46378 -29.2022
ltibia 66.2954
lfoot -3.31374 -28.0026
ltoes 18.8973
952
root 1.93768 26.2524 0.0438682 -163.385 -21.69 179.841
lowerback 15.9309 -0.319637 -10.0707
upperback 2.67238 -2.31526 1.56486
thorax -5.60618 -1.0636 7.90181
lowerneck -14.0751 -0.366119 -10.7684
upperneck 38.0911 -1.70778 1.16707
head 16.0227 -3.22951 1.79863
rclavicle -6.40087e-014 -2.5842e-014
rhumerus -11.9187 17.2255 -68.8407
rradius 129.875
rwrist 48.6447
rhand -49.1139 -0.292982
rfingers 7.12502
rthumb -21.7384 -29.0923
lclavicle -6.40087e-014 -2.5842e-014
lhumerus 54.4654 -35.3915 64.5147
lradius 71.3975
lwrist -29.6126
lhand -2.94292 41.8609
lfingers 7.12502
lthumb 22.7687 70.5372
rfemur -25.9764 -2.56064 22.8572
rtibia 18.2858
rfoot 5.93509 -18.1032
rtoes 11.6712
lfemur -62.2226 6.04696 -29.4314
ltibia 66.9217
lfoot -3.25069 -28.0978
ltoes 19.0549
